<svg xmlns="http://www.w3.org/2000/svg" viewBox="0 0 500 500"><g id="freepik--background-complete--inject-256"><rect y="382.4" width="500" height="0.25" style="fill:#ebebeb"></rect><rect x="52.46" y="391.92" width="33.12" height="0.25" style="fill:#ebebeb"></rect><rect x="171.14" y="389.21" width="55.42" height="0.25" style="fill:#ebebeb"></rect><rect x="91" y="397.86" width="19.19" height="0.25" style="fill:#ebebeb"></rect><rect x="385.46" y="391.8" width="43.19" height="0.25" style="fill:#ebebeb"></rect><rect x="437.56" y="391.8" width="6.33" height="0.25" style="fill:#ebebeb"></rect><rect x="277.21" y="395.31" width="46.84" height="0.25" style="fill:#ebebeb"></rect><path d="M237,337.8H43.91a5.71,5.71,0,0,1-5.7-5.71V60.66A5.71,5.71,0,0,1,43.91,55H237a5.71,5.71,0,0,1,5.71,5.71V332.09A5.71,5.71,0,0,1,237,337.8ZM43.91,55.2a5.46,5.46,0,0,0-5.45,5.46V332.09a5.46,5.46,0,0,0,5.45,5.46H237a5.47,5.47,0,0,0,5.46-5.46V60.66A5.47,5.47,0,0,0,237,55.2Z" style="fill:#ebebeb"></path><path d="M453.31,337.8H260.21a5.72,5.72,0,0,1-5.71-5.71V60.66A5.72,5.72,0,0,1,260.21,55h193.1A5.71,5.71,0,0,1,459,60.66V332.09A5.71,5.71,0,0,1,453.31,337.8ZM260.21,55.2a5.47,5.47,0,0,0-5.46,5.46V332.09a5.47,5.47,0,0,0,5.46,5.46h193.1a5.47,5.47,0,0,0,5.46-5.46V60.66a5.47,5.47,0,0,0-5.46-5.46Z" style="fill:#ebebeb"></path><polygon points="440.9 356.72 59.1 356.72 60.98 53.6 439.01 53.6 440.9 356.72" style="fill:#ebebeb"></polygon><polygon points="77.83 363.09 56.11 363.09 58 53.6 75.95 53.6 77.83 363.09" style="fill:#f0f0f0"></polygon><polygon points="112.31 366.77 81.19 366.77 83.9 53.6 109.61 53.6 112.31 366.77" style="fill:#f0f0f0"></polygon><polygon points="136.06 363.09 104.94 363.09 107.64 53.6 133.35 53.6 136.06 363.09" style="fill:#f0f0f0"></polygon><polygon points="170.65 363.09 148.92 363.09 150.81 53.6 168.76 53.6 170.65 363.09" style="fill:#f0f0f0"></polygon><polygon points="194.26 366.77 163.14 366.77 165.85 53.6 191.56 53.6 194.26 366.77" style="fill:#f0f0f0"></polygon><polygon points="226.93 363.09 195.81 363.09 198.51 53.6 224.22 53.6 226.93 363.09" style="fill:#f0f0f0"></polygon><polygon points="252.36 363.09 230.64 363.09 232.53 53.6 250.47 53.6 252.36 363.09" style="fill:#f0f0f0"></polygon><polygon points="286.84 366.77 255.72 366.77 258.43 53.6 284.13 53.6 286.84 366.77" style="fill:#f0f0f0"></polygon><polygon points="310.58 363.09 279.46 363.09 282.17 53.6 307.88 53.6 310.58 363.09" style="fill:#f0f0f0"></polygon><polygon points="345.18 363.09 323.45 363.09 325.34 53.6 343.29 53.6 345.18 363.09" style="fill:#f0f0f0"></polygon><polygon points="368.79 366.77 337.67 366.77 340.38 53.6 366.08 53.6 368.79 366.77" style="fill:#f0f0f0"></polygon><polygon points="426.3 366.77 395.18 366.77 397.89 53.6 423.6 53.6 426.3 366.77" style="fill:#f0f0f0"></polygon><polygon points="443.89 359.47 416.12 359.47 418.53 53.6 441.48 53.6 443.89 359.47" style="fill:#f0f0f0"></polygon><polygon points="401.45 363.09 370.33 363.09 373.04 53.6 398.75 53.6 401.45 363.09" style="fill:#f0f0f0"></polygon><path d="M435.15,104.57c-41.81,0-132.35-22.82-165.06-50.59a.5.5,0,0,1,.65-.76c34.41,29.21,133.15,52.92,171,50.13a.5.5,0,1,1,.08,1C439.75,104.5,437.53,104.57,435.15,104.57Z" style="fill:#fff"></path><polygon points="439.34 102.44 424.69 102.21 428.53 120.43 439.34 102.44" style="fill:#fff"></polygon><polygon points="419.97 101.88 405.97 99.53 408.23 118.91 419.97 101.88" style="fill:#e0e0e0"></polygon><polygon points="401.16 99.1 387.22 96.6 389.36 116.06 401.16 99.1" style="fill:#fff"></polygon><polygon points="382.75 95.53 369.05 92.34 370.67 112.13 382.75 95.53" style="fill:#e0e0e0"></polygon><polygon points="362.3 90.65 348.67 87.28 350.15 107.15 362.3 90.65" style="fill:#fff"></polygon><polygon points="344.31 85.92 330.98 81.78 331.87 102 344.31 85.92" style="fill:#e0e0e0"></polygon><polygon points="326.84 79.55 313.81 74.68 314.13 95.21 326.84 79.55" style="fill:#fff"></polygon><polygon points="306.94 72.19 294.53 65.92 293.76 86.96 306.94 72.19" style="fill:#e0e0e0"></polygon><polygon points="287.84 62.26 276.23 54.4 274.19 75.93 287.84 62.26" style="fill:#fff"></polygon><path d="M57.42,150.22a.5.5,0,0,1-.11-1c37.08-7.92,125.23-58.37,150.07-96.06a.5.5,0,0,1,.69-.14.49.49,0,0,1,.14.69c-25,37.86-113.46,88.54-150.69,96.49Z" style="fill:#fff"></path><polygon points="59.35 147.69 73.35 143.37 74.76 161.93 59.35 147.69" style="fill:#fff"></polygon><polygon points="77.78 141.73 90.56 135.54 93.83 154.78 77.78 141.73" style="fill:#e0e0e0"></polygon><polygon points="95.06 133.79 107.74 127.47 111.14 146.75 95.06 133.79" style="fill:#fff"></polygon><polygon points="111.73 125.19 123.99 118.29 127.98 137.74 111.73 125.19" style="fill:#e0e0e0"></polygon><polygon points="129.99 114.78 142.13 107.71 146.28 127.21 129.99 114.78" style="fill:#fff"></polygon><polygon points="145.93 105.19 157.57 97.47 162.38 117.13 145.93 105.19" style="fill:#e0e0e0"></polygon><polygon points="160.91 94.18 172.06 85.85 177.5 105.64 160.91 94.18" style="fill:#fff"></polygon><polygon points="177.95 81.53 188.1 72.03 194.75 92.02 177.95 81.53" style="fill:#e0e0e0"></polygon><polygon points="193.5 66.64 202.44 55.84 210.44 75.94 193.5 66.64" style="fill:#fff"></polygon></g><g id="freepik--Shadow--inject-256"><ellipse id="freepik--path--inject-256" cx="250" cy="416.24" rx="193.89" ry="11.32" style="fill:#f5f5f5"></ellipse></g><g id="freepik--Flags--inject-256"><path d="M115.29,89.14s1.5-3.63-1.65-4.19c-1.39,7.8-17.42,208.16-14.43,248.9,24.92,27.84,43.14,22.72,43.14,22.72S117.51,128.82,115.29,89.14Z" style="fill:#FF725E"></path><path d="M115.29,89.14s1.5-3.63-1.65-4.19c-1.39,7.8-17.42,208.16-14.43,248.9,24.92,27.84,43.14,22.72,43.14,22.72S117.51,128.82,115.29,89.14Z" style="opacity:0.4"></path><path d="M113.91,410.42h-2.52a4.56,4.56,0,0,0-4.57,4.57h11.66A4.56,4.56,0,0,0,113.91,410.42Z" style="fill:#263238"></path><rect x="111.09" y="53" width="3.11" height="358.92" style="fill:#263238"></rect><circle cx="112.65" cy="53" r="3.5" style="fill:#263238"></circle><path d="M114.73,47.71c0,1.93-.93,3.5-2.08,3.5s-2.08-1.57-2.08-3.5.93-13.1,2.08-13.1S114.73,45.78,114.73,47.71Z" style="fill:#263238"></path><path d="M110.57,69.89s-1.41-4.52,1.75-3.11c1.2,8.57,12.44,216.49,8.5,254.89-25.51,12-43.56-4.34-43.56-4.34S107.42,107.73,110.57,69.89Z" style="fill:#FF725E"></path><path d="M110.57,69.89s-1.41-4.52,1.75-3.11c1.2,8.57,12.44,216.49,8.5,254.89-25.51,12-43.56-4.34-43.56-4.34S107.42,107.73,110.57,69.89Z" style="opacity:0.2"></path><path d="M115.2,65.58s-3-1-5.11,0C108.9,73,98.15,261.89,90.15,293.89c22.44,25.11,40.22,21.33,40.22,21.33S115.48,99.06,115.2,65.58Z" style="fill:#FF725E"></path><path d="M395.68,89.14s1.5-3.63-1.65-4.19c-1.39,7.8-16.72,219.72-13.78,258.49,24.42,5,42.26-17.33,42.26-17.33S397.9,128.82,395.68,89.14Z" style="fill:#FF725E"></path><path d="M395.68,89.14s1.5-3.63-1.65-4.19c-1.39,7.8-16.72,219.72-13.78,258.49,24.42,5,42.26-17.33,42.26-17.33S397.9,128.82,395.68,89.14Z" style="opacity:0.4"></path><path d="M394.3,410.42h-2.52A4.57,4.57,0,0,0,387.2,415h11.67A4.57,4.57,0,0,0,394.3,410.42Z" style="fill:#263238"></path><rect x="391.48" y="53" width="3.11" height="358.92" style="fill:#263238"></rect><circle cx="393.04" cy="53" r="3.5" style="fill:#263238"></circle><path d="M395.12,47.71c0,1.93-.93,3.5-2.08,3.5S391,49.64,391,47.71s.94-13.1,2.09-13.1S395.12,45.78,395.12,47.71Z" style="fill:#263238"></path><path d="M391,69.89s-1.4-4.52,1.75-3.11c1.21,8.57,12.95,206.75,9,243.52C376.1,312.58,358,289.39,358,289.39S387.8,107.73,391,69.89Z" style="fill:#FF725E"></path><path d="M391,69.89s-1.4-4.52,1.75-3.11c1.21,8.57,12.95,206.75,9,243.52C376.1,312.58,358,289.39,358,289.39S387.8,107.73,391,69.89Z" style="opacity:0.2"></path><path d="M395.59,65.58s-3-1-5.11,0c-1.19,7.42-19.11,210.11-19.94,243.09,27.38,19.61,40.22,6.55,40.22,6.55S395.87,99.06,395.59,65.58Z" style="fill:#FF725E"></path></g><g id="freepik--Character--inject-256"><path d="M259.66,86.87c2.87,6.52,2.63,9.71,1.94,10.93-2.79,2-7.09.89-7.09.89s.35-6.41.8-9.69S259.66,86.87,259.66,86.87Z" style="fill:#263238"></path><path d="M317.38,140.41a42.09,42.09,0,0,0-.82-5.75c-.38-1.8-.8-3.51-1.3-5.17a86.38,86.38,0,0,0-3.51-9.47,79.94,79.94,0,0,0-4.55-8.87,6.3,6.3,0,0,0-11.69,3.66l0,.36c.19,2.91.53,6,.74,8.91.14,1.48.23,2.94.32,4.39s.17,2.86.19,4.25.06,3,0,4.37l-1-.16c-1.27-.24-2.59-.51-3.93-.84s-2.7-.64-4.07-1l-4.15-1.18-4.19-1.29-4.19-1.34-4-1.32-.49-.16a12.45,12.45,0,0,0-8.56,23.37l1.33.55,1.23.48c.82.31,1.64.6,2.45.88,1.63.59,3.28,1.08,4.93,1.58,3.32,1,6.68,1.84,10.17,2.49,1.74.34,3.51.63,5.32.89s3.65.41,5.54.54a49.57,49.57,0,0,0,12.41-.61l.77-.13a10.15,10.15,0,0,0,4.07-1.74,16.07,16.07,0,0,0,4.79-5.57,17.85,17.85,0,0,0,1.72-4.88A26.61,26.61,0,0,0,317.38,140.41Z" style="fill:#263238"></path><path d="M306.31,112.84c2.49-4.08-2.87-11.17-2.87-11.17l-2.54-4.88a3.8,3.8,0,0,0-4.56-1.87l-4.45,1.46a3.81,3.81,0,0,0-2.41,4.88l1.81,5.15a6.84,6.84,0,0,0,1.51,2.45l2.75,2.85a8.8,8.8,0,0,0,9.13,2.22l.42-.15A2.18,2.18,0,0,0,306.31,112.84Z" style="fill:#ffb573"></path><path d="M217.27,130.65c19.79-8.1,44.23-5.19,56.06.14,7.59,3.43,11.63,11.59,12.54,18.11,2.69,19.3,7.59,65.22-2.12,79.3-29.19,10-70.55-.13-70.55-.13-1.06-6.86-2.12-28.95-.51-40.94-.26-8.92-1.47-16-4.85-32.43C206.21,146.72,207.31,134.73,217.27,130.65Z" style="fill:#263238"></path><path d="M223.84,160.58l-16.26-7.35c.07.5.17,1,.26,1.47,3.39,16.43,4.59,23.51,4.85,32.43-.32,2.38-.53,5.15-.67,8.12l11.74,8.49S218.13,186.93,223.84,160.58Z" style="opacity:0.2"></path><path d="M257.12,126.88c1.61,1.62,2.68,4.15,3.25,7.41,1.37,7.84.14,36.05-4,49.9-4-11.15-12.81-42.05-18-50.62-2.47-4.07-4.2-6.75-4.36-7v0A48.11,48.11,0,0,1,257.12,126.88Z" style="fill:#e0e0e0"></path><path d="M257.89,78.2c-5-7.21-17.08-7.5-20.48-1.47-1.7,3-8.53,1.58-6.4,7.46-4.59.64-3.43,4.35-1.52,8-1.28,4.74-1.64,17.91,8.67,17.15,3.73-.28,4.72-2.56,4.14-5.4a21.3,21.3,0,0,0,9.76-3.16C259.43,96.24,262.76,85.24,257.89,78.2Z" style="fill:#263238"></path><path d="M255.33,93.08a.26.26,0,0,1-.25-.22.25.25,0,0,1,.22-.27,7.42,7.42,0,0,0,6.12-5.74c.65-3-.7-5.74-3.71-7.57a.24.24,0,0,1-.08-.34.24.24,0,0,1,.34-.08c3.2,1.94,4.64,4.89,3.94,8.09a7.93,7.93,0,0,1-6.55,6.13Z" style="fill:#263238"></path><path d="M235,105.78c-.68.61-1.27,7.34,3.2,7S237.75,105.38,235,105.78Z" style="fill:#263238"></path><path d="M235.09,103.52l19.48,9.68a14.27,14.27,0,0,0,2.55,14c2.4,2.63-1.64,6.09-5.19,7.57-5.73-.71-13.81-2.62-17.3-7.42C235.73,123.59,236.57,111.25,235.09,103.52Z" style="fill:#ffb573"></path><path d="M255.55,131.62a11.48,11.48,0,0,1-3.15,4.76c-2.31,0-5.7-2.62-5.7-2.62s1.31-3.67,3.15-4.42C254.54,130.49,255.55,131.62,255.55,131.62Z" style="fill:#263238"></path><path d="M250.27,134.77a3.34,3.34,0,0,1,2.55-.65c3,4.32,5.62,27.35,7.49,35.08a175,175,0,0,1-3.92,17.88c-1.47-4.15-4.72-11.11-6.45-16.86C250.6,164.69,251.83,145.47,250.27,134.77Z" style="fill:#263238"></path><path d="M239,105.48a56.77,56.77,0,0,0,1.86,7.32c1.37,4.41,8.79,6.89,12.85,5.29a13,13,0,0,1,.83-4.88Z" style="opacity:0.2"></path><path d="M233.9,94.4c1.39,9.53,1.26,15.77,7,19.66,9.13,6.22,21,2.66,20.86-8.53-.07-8.91-1.15-22.91-10.85-25.86A13.27,13.27,0,0,0,233.9,94.4Z" style="fill:#ffb573"></path><path d="M256.67,81.37c-7.06-7.21-27.56-2.83-24.22,14.88a5.11,5.11,0,0,0,.76.23c.3,2.62.64,5,.64,5s4.8.24,7.17-2.24c.34-1-.74-4-2.63-7.45l0,0,0,0q-.28-.52-.6-1c-1.75-3.34-1.88-7,2.83-8.18C244,81.65,259,88.4,256.67,81.37Z" style="fill:#263238"></path><path d="M238.39,91.83l0,0,0-.06c-.19-.34-.39-.69-.6-1a32.93,32.93,0,0,0-5.65,1.59,26.4,26.4,0,0,0-2.9,1.32,23,23,0,0,0-.34,4.2,30.25,30.25,0,0,1,3.54-2,52.29,52.29,0,0,1,6.76-2.58C238.92,92.8,238.66,92.32,238.39,91.83Z" style="fill:#fff;opacity:0.4"></path><path d="M231,101.43a7.7,7.7,0,0,0,4.3,4.08c2.56.95,3.38-1.19,2.88-3.72-.45-2.27-1.62-5.61-4.28-5.47A3.51,3.51,0,0,0,231,101.43Z" style="fill:#ffb573"></path><path d="M247.28,94.75c.07.78.53,1.38,1,1.33s.88-.72.81-1.5-.53-1.37-1-1.33S247.22,94,247.28,94.75Z" style="fill:#263238"></path><path d="M256.61,94.52c.07.78.54,1.38,1.05,1.33s.87-.72.8-1.5-.53-1.37-1-1.32S256.55,93.74,256.61,94.52Z" style="fill:#263238"></path><path d="M254.72,95.57s2.15,4.34,4.29,6.33c-1.28,1.42-3.67,1-3.67,1Z" style="fill:#ed893e"></path><path d="M244.51,92.11a.43.43,0,0,1-.25-.09.53.53,0,0,1-.14-.73,5.29,5.29,0,0,1,4.21-2.42.52.52,0,0,1,.52.53.53.53,0,0,1-.54.52h0a4.26,4.26,0,0,0-3.31,2A.53.53,0,0,1,244.51,92.11Z" style="fill:#263238"></path><path d="M260.33,91a.54.54,0,0,1-.48-.13,4.13,4.13,0,0,0-3.61-1.24.52.52,0,0,1-.62-.4.53.53,0,0,1,.4-.63,5.17,5.17,0,0,1,4.58,1.51.53.53,0,0,1,0,.75A.59.59,0,0,1,260.33,91Z" style="fill:#263238"></path><path d="M234,126.56v0c.16.24,1.89,2.92,4.36,7a19.39,19.39,0,0,0,8.87,4.65c-.49-1.64,1-7.18,2.6-8.88C246,129.53,240.72,128.88,234,126.56Z" style="fill:#fafafa"></path><path d="M249.85,129.34a14.17,14.17,0,0,1,7.63,8.12,5.26,5.26,0,0,0,2.89-3.17c-.57-3.26-1.64-5.79-3.25-7.41C256.24,128,253.82,129.13,249.85,129.34Z" style="fill:#fafafa"></path><path d="M236.7,205.47l-.84-.57c-.48-.33-1.19-.71-1.79-1.09s-1.27-.74-1.89-1.13c-1.26-.74-2.48-1.53-3.69-2.3s-2.37-1.59-3.49-2.39-2.21-1.62-3.21-2.46a27.22,27.22,0,0,1-4.88-5A10.37,10.37,0,0,1,216,189a49.9,49.9,0,0,1,1.53-8.74,89.8,89.8,0,0,1,3.43-10c1.4-3.34,2.92-6.7,4.63-10,.83-1.66,1.73-3.29,2.61-4.91l1.35-2.41,1.26-2.16.34-.59A12.45,12.45,0,0,0,210,137.05l-.58.86-.49.75-.94,1.47c-.61,1-1.17,2-1.74,2.94-1.14,2-2.17,4-3.18,6a107.49,107.49,0,0,0-5.28,12.62q-1.11,3.28-2.06,6.69c-.58,2.29-1.09,4.62-1.51,7a70,70,0,0,0-.87,7.35,62.61,62.61,0,0,0,.06,7.74l.07.93a6.79,6.79,0,0,0,.29,1.52,25.05,25.05,0,0,0,3.63,7.3,29.74,29.74,0,0,0,4.76,5.15,42.47,42.47,0,0,0,10.07,6.29,60.41,60.41,0,0,0,10.1,3.47c1.69.43,3.38.76,5.07,1.06.85.13,1.7.26,2.56.37s1.67.18,2.7.26a6.23,6.23,0,0,0,4-11.35Z" style="fill:#263238"></path><path d="M234.24,215.53a2.24,2.24,0,0,1,.12-1.53l1.82-4.18a2.31,2.31,0,0,1,2-1.37l3.85-.12a26.12,26.12,0,0,1,10.93,2l1.14.48a3.81,3.81,0,0,1,2,5.06l-1.91,4.28a3.81,3.81,0,0,1-4.45,2.12l-5.32-1.4S235.58,220.12,234.24,215.53Z" style="fill:#ffb573"></path><path d="M237.21,205.75s3.55-.2,5.44.64c.65,2.93-4.12,12.58-6.48,14.09-1.52-.33-5-4.41-5-4.41C231.88,212.92,234.46,208,237.21,205.75Z" style="fill:#fff"></path><path d="M295.79,117.31l-1.45-4.83c1.5-2.6,11.18-3.54,13.81-2.61a18.22,18.22,0,0,1,.9,4.76C306.08,115.93,298.27,117.1,295.79,117.31Z" style="fill:#fff"></path><path d="M251.74,105.76a9.68,9.68,0,0,0,1.49-.08.25.25,0,0,0,.2-.3.28.28,0,0,0-.31-.22,7.51,7.51,0,0,1-6.23-2,.26.26,0,0,0-.37,0,.25.25,0,0,0,0,.37A7.91,7.91,0,0,0,251.74,105.76Z" style="fill:#263238"></path><polygon points="192.03 319.13 333.47 268.36 331.9 293.45 188.95 368.61 192.03 319.13" style="fill:#FF725E"></polygon><polygon points="192.03 319.13 333.47 268.36 331.9 293.45 188.95 368.61 192.03 319.13" style="opacity:0.30000000000000004"></polygon><path d="M284.66,211.65h-4.09l3.94-18.56a15.31,15.31,0,0,0-4.27-14.17l-8.35-8.2h0a2.62,2.62,0,0,0-1.08-3.53l-2.12-1.13a2.61,2.61,0,1,0-2.45,4.6l2.12,1.13a2.62,2.62,0,0,0,2.88-.28l8.29,8.14a14.28,14.28,0,0,1,4,13.24l-4,18.77h-5.66a7.57,7.57,0,0,0,0,15.14h10.77a7.57,7.57,0,1,0,0-15.14Z" style="fill:#e0e0e0"></path><polygon points="304.72 228.78 195.28 228.78 205.28 416.24 294.72 416.24 304.72 228.78" style="fill:#FF725E"></polygon><polygon points="304.72 228.78 195.28 228.78 205.28 416.24 294.72 416.24 304.72 228.78" style="fill:#fff;opacity:0.2"></polygon><polygon points="292.06 240.78 283.35 404.24 216.66 404.24 207.94 240.78 205.83 245.44 214.76 406.24 285.24 406.24 294.17 245.44 292.06 240.78" style="fill:#FF725E;opacity:0.8"></polygon><polygon points="216.66 404.24 207.94 240.78 292.06 240.78 283.35 404.24 216.66 404.24" style="fill:#fff;opacity:0.2"></polygon><path d="M180.29,221.85l6,21.48L196.41,250l-1.13-21.22H304.72L303.59,250l10.08-6.67,6-21.48-4.81-6.35H185.1Z" style="fill:#FF725E"></path><polygon points="180.29 221.85 186.33 243.33 196.41 250 195.28 228.78 304.72 228.78 303.59 250 313.67 243.33 319.71 221.85 314.9 219.22 185.1 219.22 180.29 221.85" style="opacity:0.2"></polygon><circle cx="250" cy="384.3" r="7.26" style="fill:#FF725E"></circle><circle cx="250" cy="383.31" r="7.26" style="fill:#fff"></circle><circle cx="250" cy="255.18" r="7.26" style="fill:#FF725E"></circle><circle cx="250" cy="254.19" r="7.26" style="fill:#fff"></circle><polygon points="319.36 351.12 188.95 368.61 192.03 319.13 322.44 301.63 310.39 325.63 319.36 351.12" style="fill:#FF725E"></polygon><path d="M206.78,325.55l13.3-1.78a13.37,13.37,0,0,1,6.28.34,7.91,7.91,0,0,1,3.79,2.9,12.17,12.17,0,0,1,2,4.91,25.52,25.52,0,0,1,.32,6.2,26.58,26.58,0,0,1-1.56,8.23,17.59,17.59,0,0,1-3.24,5.21,12.21,12.21,0,0,1-4.19,3.12,20.78,20.78,0,0,1-5.39,1.6l-13.3,1.79Zm8.5,6.16-1.11,17.77,2.19-.29a9.56,9.56,0,0,0,4-1.24,6,6,0,0,0,2-2.69,18.78,18.78,0,0,0,1-5.73c.21-3.45-.14-5.74-1.07-6.88s-2.54-1.55-4.86-1.24Z" style="fill:#fff"></path><path d="M252.54,346.34l-10.17,1.36-1.75,5.56-9.14,1.22,12.92-34,9.76-1.32L263,350.25l-9.38,1.26Zm-1.42-6.79-2.47-11.26-3.9,12.12Z" style="fill:#fff"></path><path d="M261.53,318.21l10-1.34,5.16,10.19,6.53-11.76,9.89-1.32-12.44,20.41L279.77,348l-9,1.2.84-13.62Z" style="fill:#fff"></path><polygon points="331.9 293.45 158.45 316.72 165.83 302.52 158.11 291.89 333.47 268.36 331.9 293.45" style="fill:#FF725E"></polygon><path d="M177.48,293.83l7.55-1a3.56,3.56,0,0,1,4.61,4.24,6.2,6.2,0,0,1-1.57,3.95,6.68,6.68,0,0,1-4.17,1.9l-2.48.34-.37,5.91-4.56.61Zm4.14,6.18,1.11-.15a3.26,3.26,0,0,0,1.87-.74,2,2,0,0,0,.61-1.34,1.51,1.51,0,0,0-.38-1.21c-.28-.31-.85-.4-1.7-.29l-1.29.17Z" style="fill:#fff"></path><path d="M191.39,307.77l1-15.94,7.57-1a9.75,9.75,0,0,1,3.19,0,2.65,2.65,0,0,1,1.7,1.21,4.12,4.12,0,0,1,.52,2.49,5.45,5.45,0,0,1-.66,2.36,5.71,5.71,0,0,1-1.53,1.75,6.54,6.54,0,0,1-1.64.85,3.55,3.55,0,0,1,1.15.43,3.47,3.47,0,0,1,.67.74,5.5,5.5,0,0,1,.58.9l1.91,4.33-5.13.69L198.59,302a2.85,2.85,0,0,0-.75-1.12,1.6,1.6,0,0,0-1.09-.22l-.4.05-.4,6.47Zm5.15-10.1,1.91-.25a8.15,8.15,0,0,0,1.22-.38,1.57,1.57,0,0,0,.76-.6,1.85,1.85,0,0,0,.35-1,1.3,1.3,0,0,0-.38-1.13,2.28,2.28,0,0,0-1.67-.18l-2,.26Z" style="fill:#fff"></path><path d="M208.27,289.69l12.17-1.63-.22,3.41-7.61,1-.16,2.53,7.07-.95-.21,3.25-7.06.95-.2,3.14,7.84-1.05-.22,3.61-12.39,1.66Z" style="fill:#fff"></path><path d="M221.65,298.48l4.33-.88a3.16,3.16,0,0,0,.47,1.67,1.91,1.91,0,0,0,1.94.7,2.54,2.54,0,0,0,1.53-.7,1.92,1.92,0,0,0,.6-1.22,1.24,1.24,0,0,0-.44-1,4.63,4.63,0,0,0-2.26-.61,7.68,7.68,0,0,1-4.14-1.37,3.29,3.29,0,0,1-1.09-2.9,5.22,5.22,0,0,1,.8-2.41,5.75,5.75,0,0,1,2.08-2,9.54,9.54,0,0,1,3.65-1.11,6.13,6.13,0,0,1,4.22.56,4,4,0,0,1,1.54,3.38l-4.3.84a2.06,2.06,0,0,0-.62-1.47,1.88,1.88,0,0,0-1.47-.28,2.05,2.05,0,0,0-1.22.52,1.48,1.48,0,0,0-.46.94.75.75,0,0,0,.29.64,3,3,0,0,0,1.49.38,15.47,15.47,0,0,1,4.17.84,3.45,3.45,0,0,1,1.77,1.52,4.3,4.3,0,0,1,.44,2.28,6.39,6.39,0,0,1-1,2.93A6.64,6.64,0,0,1,231.7,302a9.38,9.38,0,0,1-3.58,1.15q-3.74.5-5.09-.87A5.24,5.24,0,0,1,221.65,298.48Z" style="fill:#fff"></path><path d="M238.1,285.69l4.55-.61-1,15.94-4.55.61Z" style="fill:#fff"></path><path d="M246,284.64l6.74-.91a7,7,0,0,1,3.19.16,4,4,0,0,1,1.92,1.41,5.79,5.79,0,0,1,1,2.4,12,12,0,0,1,.17,3,12.64,12.64,0,0,1-.78,4,8.52,8.52,0,0,1-1.64,2.56,6.06,6.06,0,0,1-2.12,1.54,10.74,10.74,0,0,1-2.73.8l-6.75.91Zm4.31,3-.54,8.71,1.11-.15a4.92,4.92,0,0,0,2.05-.62,3,3,0,0,0,1-1.32,8.92,8.92,0,0,0,.52-2.81c.1-1.69-.08-2.81-.55-3.37a2.62,2.62,0,0,0-2.47-.59Z" style="fill:#fff"></path><path d="M261.86,282.51,274,280.87l-.21,3.41-7.61,1-.16,2.53,7.06-.95-.2,3.25-7.06.95-.2,3.14,7.84-1.05-.23,3.61-12.38,1.66Z" style="fill:#fff"></path><path d="M276.72,280.51l4.24-.57,5,8.08.55-8.82,4.28-.57-1,15.94-4.28.57-4.95-8-.55,8.75-4.26.57Z" style="fill:#fff"></path><path d="M292.75,278.36l13.8-1.85-.25,3.94-4.63.62-.74,12-4.54.61.74-12-4.63.62Z" style="fill:#fff"></path><path d="M307.82,276.07l4.35-.59-.22,3.65a6.69,6.69,0,0,1-1,3.28,8.26,8.26,0,0,1-2.76,2.4l-.84-1.8a6.21,6.21,0,0,0,1.68-1.39,3,3,0,0,0,.57-1.44l-2.09.28Z" style="fill:#fff"></path><path d="M312.85,286.24l4.33-.87a3.12,3.12,0,0,0,.47,1.66,1.89,1.89,0,0,0,1.94.7,2.54,2.54,0,0,0,1.53-.7,1.89,1.89,0,0,0,.6-1.21,1.23,1.23,0,0,0-.44-1,4.5,4.5,0,0,0-2.26-.62,7.78,7.78,0,0,1-4.14-1.36,3.31,3.31,0,0,1-1.09-2.91,5.22,5.22,0,0,1,.8-2.41,5.92,5.92,0,0,1,2.08-2,9.91,9.91,0,0,1,3.65-1.11,6.19,6.19,0,0,1,4.22.56,4,4,0,0,1,1.54,3.38l-4.3.85a2,2,0,0,0-.62-1.47,1.84,1.84,0,0,0-1.47-.29,2.12,2.12,0,0,0-1.22.52,1.5,1.5,0,0,0-.46.94.77.77,0,0,0,.29.65,3.07,3.07,0,0,0,1.49.38,16,16,0,0,1,4.17.83,3.5,3.5,0,0,1,1.77,1.52,4.3,4.3,0,0,1,.44,2.28,6.39,6.39,0,0,1-1,2.93,6.58,6.58,0,0,1-2.31,2.26,9.38,9.38,0,0,1-3.58,1.14q-3.74.51-5.09-.87A5.22,5.22,0,0,1,312.85,286.24Z" style="fill:#fff"></path></g><g id="freepik--Stars--inject-256"><polygon points="62.41 101.27 62.89 105.19 66.39 107.02 62.8 108.68 62.14 112.58 59.45 109.69 55.55 110.26 57.47 106.81 55.71 103.27 59.59 104.03 62.41 101.27" style="fill:#FF725E"></polygon><polygon points="305.34 50.2 305.87 52.52 308.09 53.4 306.04 54.62 305.89 57 304.09 55.44 301.78 56.02 302.72 53.83 301.44 51.82 303.82 52.03 305.34 50.2" style="fill:#FF725E"></polygon><polygon points="305.34 50.2 305.87 52.52 308.09 53.4 306.04 54.62 305.89 57 304.09 55.44 301.78 56.02 302.72 53.83 301.44 51.82 303.82 52.03 305.34 50.2" style="opacity:0.4"></polygon><polygon points="149.32 191.3 150.75 193.21 153.14 193.1 151.77 195.05 152.61 197.29 150.33 196.59 148.46 198.08 148.42 195.69 146.43 194.38 148.68 193.6 149.32 191.3" style="fill:#FF725E"></polygon><polygon points="149.32 191.3 150.75 193.21 153.14 193.1 151.77 195.05 152.61 197.29 150.33 196.59 148.46 198.08 148.42 195.69 146.43 194.38 148.68 193.6 149.32 191.3" style="opacity:0.4"></polygon><polygon points="175.54 120.77 176.97 122.68 179.36 122.58 177.99 124.53 178.82 126.76 176.54 126.06 174.67 127.55 174.63 125.16 172.65 123.84 174.9 123.07 175.54 120.77" style="fill:#FF725E"></polygon><polygon points="149.63 74.11 151.59 76.87 154.97 76.82 152.96 79.54 154.06 82.74 150.85 81.66 148.14 83.69 148.17 80.31 145.4 78.37 148.63 77.35 149.63 74.11" style="fill:#FF725E"></polygon><polygon points="149.63 74.11 151.59 76.87 154.97 76.82 152.96 79.54 154.06 82.74 150.85 81.66 148.14 83.69 148.17 80.31 145.4 78.37 148.63 77.35 149.63 74.11" style="fill:#fff;opacity:0.6000000000000001"></polygon><polygon points="343.18 178.25 343.65 182.17 347.15 184 343.57 185.66 342.91 189.56 340.22 186.66 336.31 187.24 338.23 183.79 336.48 180.25 340.35 181.01 343.18 178.25" style="fill:#FF725E"></polygon><polygon points="343.18 178.25 343.65 182.17 347.15 184 343.57 185.66 342.91 189.56 340.22 186.66 336.31 187.24 338.23 183.79 336.48 180.25 340.35 181.01 343.18 178.25" style="fill:#fff;opacity:0.6000000000000001"></polygon><polygon points="436.52 84.82 437.95 86.73 440.33 86.63 438.96 88.58 439.8 90.81 437.52 90.11 435.65 91.59 435.61 89.21 433.62 87.89 435.88 87.12 436.52 84.82" style="fill:#FF725E"></polygon><polygon points="436.52 84.82 437.95 86.73 440.33 86.63 438.96 88.58 439.8 90.81 437.52 90.11 435.65 91.59 435.61 89.21 433.62 87.89 435.88 87.12 436.52 84.82" style="fill:#fff;opacity:0.6000000000000001"></polygon></g></svg>